<mxfile host="app.diagrams.net" modified="2023-08-06T06:17:49.121Z" agent="Mozilla/5.0 (Macintosh; Intel Mac OS X 10_15_7) AppleWebKit/537.36 (KHTML, like Gecko) Chrome/115.0.0.0 Safari/537.36" etag="a_buvKV13f9Ex32mJZS9" version="21.6.6" type="github">
  <diagram name="페이지-1" id="ZDgDwjHIAIVBKG1WbXPP">
    <mxGraphModel dx="1368" dy="765" grid="1" gridSize="10" guides="1" tooltips="1" connect="1" arrows="1" fold="1" page="1" pageScale="1" pageWidth="827" pageHeight="1169" math="0" shadow="0">
      <root>
        <mxCell id="0" />
        <mxCell id="1" parent="0" />
        <mxCell id="9u3Se7fukIEXebvzobtR-1" value="Django&lt;br&gt;Server" style="shape=cylinder3;whiteSpace=wrap;html=1;boundedLbl=1;backgroundOutline=1;size=15;" vertex="1" parent="1">
          <mxGeometry x="290" y="220" width="140" height="100" as="geometry" />
        </mxCell>
        <mxCell id="9u3Se7fukIEXebvzobtR-2" value="Users" style="shape=umlActor;verticalLabelPosition=bottom;verticalAlign=top;html=1;outlineConnect=0;" vertex="1" parent="1">
          <mxGeometry x="80" y="230" width="30" height="60" as="geometry" />
        </mxCell>
        <mxCell id="9u3Se7fukIEXebvzobtR-4" value="" style="endArrow=classic;startArrow=classic;html=1;rounded=0;entryX=0;entryY=0.5;entryDx=0;entryDy=0;entryPerimeter=0;" edge="1" parent="1" target="9u3Se7fukIEXebvzobtR-1">
          <mxGeometry width="50" height="50" relative="1" as="geometry">
            <mxPoint x="120" y="270" as="sourcePoint" />
            <mxPoint x="290" y="310" as="targetPoint" />
          </mxGeometry>
        </mxCell>
        <mxCell id="9u3Se7fukIEXebvzobtR-5" value="Kafka" style="shape=cylinder3;whiteSpace=wrap;html=1;boundedLbl=1;backgroundOutline=1;size=15;" vertex="1" parent="1">
          <mxGeometry x="295" y="80" width="130" height="70" as="geometry" />
        </mxCell>
        <mxCell id="9u3Se7fukIEXebvzobtR-6" value="" style="endArrow=classic;html=1;rounded=0;entryX=0.5;entryY=1;entryDx=0;entryDy=0;entryPerimeter=0;exitX=0.5;exitY=0;exitDx=0;exitDy=0;exitPerimeter=0;" edge="1" parent="1" source="9u3Se7fukIEXebvzobtR-1" target="9u3Se7fukIEXebvzobtR-5">
          <mxGeometry width="50" height="50" relative="1" as="geometry">
            <mxPoint x="390" y="420" as="sourcePoint" />
            <mxPoint x="440" y="370" as="targetPoint" />
          </mxGeometry>
        </mxCell>
        <mxCell id="9u3Se7fukIEXebvzobtR-7" value="Feedback Logs" style="text;html=1;strokeColor=none;fillColor=none;align=center;verticalAlign=middle;whiteSpace=wrap;rounded=0;" vertex="1" parent="1">
          <mxGeometry x="370" y="170" width="60" height="30" as="geometry" />
        </mxCell>
        <mxCell id="9u3Se7fukIEXebvzobtR-8" value="MongoDB" style="shape=cylinder3;whiteSpace=wrap;html=1;boundedLbl=1;backgroundOutline=1;size=15;" vertex="1" parent="1">
          <mxGeometry x="550" y="230" width="100" height="80" as="geometry" />
        </mxCell>
        <mxCell id="9u3Se7fukIEXebvzobtR-10" value="" style="endArrow=classic;startArrow=classic;html=1;rounded=0;entryX=0;entryY=0.5;entryDx=0;entryDy=0;entryPerimeter=0;exitX=1;exitY=0.5;exitDx=0;exitDy=0;exitPerimeter=0;" edge="1" parent="1" source="9u3Se7fukIEXebvzobtR-1" target="9u3Se7fukIEXebvzobtR-8">
          <mxGeometry width="50" height="50" relative="1" as="geometry">
            <mxPoint x="390" y="420" as="sourcePoint" />
            <mxPoint x="440" y="370" as="targetPoint" />
          </mxGeometry>
        </mxCell>
        <mxCell id="9u3Se7fukIEXebvzobtR-11" value="Caching" style="text;html=1;strokeColor=none;fillColor=none;align=center;verticalAlign=middle;whiteSpace=wrap;rounded=0;" vertex="1" parent="1">
          <mxGeometry x="460" y="270" width="60" height="30" as="geometry" />
        </mxCell>
        <mxCell id="9u3Se7fukIEXebvzobtR-12" value="" style="endArrow=classic;startArrow=classic;html=1;rounded=0;exitX=1;exitY=0;exitDx=0;exitDy=15;exitPerimeter=0;" edge="1" parent="1" source="9u3Se7fukIEXebvzobtR-1">
          <mxGeometry width="50" height="50" relative="1" as="geometry">
            <mxPoint x="440" y="280" as="sourcePoint" />
            <mxPoint x="530" y="150" as="targetPoint" />
          </mxGeometry>
        </mxCell>
        <mxCell id="9u3Se7fukIEXebvzobtR-13" value="GitHub API&lt;br&gt;(HTML to Markdown)" style="ellipse;shape=cloud;whiteSpace=wrap;html=1;" vertex="1" parent="1">
          <mxGeometry x="510" y="90" width="170" height="80" as="geometry" />
        </mxCell>
        <mxCell id="9u3Se7fukIEXebvzobtR-14" value="" style="endArrow=none;dashed=1;html=1;dashPattern=1 3;strokeWidth=2;rounded=0;entryX=0;entryY=0.5;entryDx=0;entryDy=0;entryPerimeter=0;" edge="1" parent="1" target="9u3Se7fukIEXebvzobtR-5">
          <mxGeometry width="50" height="50" relative="1" as="geometry">
            <mxPoint x="220" y="115" as="sourcePoint" />
            <mxPoint x="440" y="370" as="targetPoint" />
          </mxGeometry>
        </mxCell>
        <mxCell id="9u3Se7fukIEXebvzobtR-15" value="[TODO]&lt;br&gt;&lt;br&gt;Feature Store" style="rounded=1;whiteSpace=wrap;html=1;dashed=1;dashPattern=12 12;" vertex="1" parent="1">
          <mxGeometry x="50" y="80" width="170" height="80" as="geometry" />
        </mxCell>
      </root>
    </mxGraphModel>
  </diagram>
</mxfile>
